<mxfile host="app.diagrams.net" modified="2023-02-07T18:31:01.353Z" agent="5.0 (Macintosh; Intel Mac OS X 10_15_7) AppleWebKit/605.1.15 (KHTML, like Gecko) Version/16.1 Safari/605.1.15" etag="_cmOl5OYNf0PN1o_6Bqv" version="20.8.17" type="github">
  <diagram name="第 1 页" id="BRb0-vqvPjSpipJAK_SO">
    <mxGraphModel dx="1023" dy="572" grid="1" gridSize="10" guides="1" tooltips="1" connect="1" arrows="1" fold="1" page="1" pageScale="1" pageWidth="827" pageHeight="1169" math="0" shadow="0">
      <root>
        <mxCell id="0" />
        <mxCell id="1" parent="0" />
        <mxCell id="GmRGHw50mJRch_P5mmz5-1" value="" style="rounded=0;whiteSpace=wrap;html=1;" vertex="1" parent="1">
          <mxGeometry x="230" y="190" width="120" height="60" as="geometry" />
        </mxCell>
      </root>
    </mxGraphModel>
  </diagram>
</mxfile>
